<svg xmlns="http://www.w3.org/2000/svg" width="256" height="256" viewBox="0 0 256 256" fill="none"><metadata><rdf:RDF xmlns:rdf="http://www.w3.org/1999/02/22-rdf-syntax-ns#" xmlns:dc="http://purl.org/dc/elements/1.1/"><rdf:Description><dc:creator>RealFaviconGenerator</dc:creator><dc:source>https://realfavicongenerator.net</dc:source></rdf:Description></rdf:RDF></metadata><rect width="256" height="256" rx="128" fill="white"></rect><path d="M133.524 31H123.062V41.4616H133.524V31Z" fill="black" stroke="#111111" stroke-width="2.09232"></path><path d="M157.351 34.1365H146.889V44.5981H157.351V34.1365Z" fill="black" stroke="#111111" stroke-width="2.09232"></path><path d="M179.555 43.3342H169.093V53.7958H179.555V43.3342Z" fill="black" stroke="#111111" stroke-width="2.09232"></path><path d="M198.622 57.9636H188.16V68.4252H198.622V57.9636Z" fill="black" stroke="#111111" stroke-width="2.09232"></path><path d="M213.252 77.031H202.79V87.4926H213.252V77.031Z" fill="black" stroke="#111111" stroke-width="2.09232"></path><path d="M222.449 99.2349H211.988V109.696H222.449V99.2349Z" fill="black" stroke="#111111" stroke-width="2.09232"></path><path d="M225.586 123.062H215.124V133.524H225.586V123.062Z" fill="black" stroke="#111111" stroke-width="2.09232"></path><path d="M222.449 146.889H211.988V157.351H222.449V146.889Z" fill="black" stroke="#111111" stroke-width="2.09232"></path><path d="M213.252 169.093H202.79V179.555H213.252V169.093Z" fill="black" stroke="#111111" stroke-width="2.09232"></path><path d="M198.622 188.16H188.16V198.622H198.622V188.16Z" fill="black" stroke="#111111" stroke-width="2.09232"></path><path d="M179.555 202.79H169.093V213.252H179.555V202.79Z" fill="black" stroke="#111111" stroke-width="2.09232"></path><path d="M157.351 211.988H146.889V222.449H157.351V211.988Z" fill="black" stroke="#111111" stroke-width="2.09232"></path><path d="M133.524 215.124H123.062V225.586H133.524V215.124Z" fill="black" stroke="#111111" stroke-width="2.09232"></path><path d="M109.696 211.988H99.2349V222.449H109.696V211.988Z" fill="black" stroke="#111111" stroke-width="2.09232"></path><path d="M87.4926 202.79H77.031V213.252H87.4926V202.79Z" fill="black" stroke="#111111" stroke-width="2.09232"></path><path d="M68.4252 188.16H57.9636V198.622H68.4252V188.16Z" fill="black" stroke="#111111" stroke-width="2.09232"></path><path d="M53.7958 169.093H43.3342V179.555H53.7958V169.093Z" fill="black" stroke="#111111" stroke-width="2.09232"></path><path d="M44.5981 146.889H34.1365V157.351H44.5981V146.889Z" fill="black" stroke="#111111" stroke-width="2.09232"></path><path d="M41.4616 123.062H31V133.524H41.4616V123.062Z" fill="black" stroke="#111111" stroke-width="2.09232"></path><path d="M44.5981 99.2349H34.1365V109.696H44.5981V99.2349Z" fill="black" stroke="#111111" stroke-width="2.09232"></path><path d="M53.7958 77.031H43.3342V87.4926H53.7958V77.031Z" fill="black" stroke="#111111" stroke-width="2.09232"></path><path d="M68.4252 57.9636H57.9636V68.4252H68.4252V57.9636Z" fill="black" stroke="#111111" stroke-width="2.09232"></path><path d="M87.4926 43.3342H77.031V53.7958H87.4926V43.3342Z" fill="black" stroke="#111111" stroke-width="2.09232"></path><path d="M109.696 34.1365H99.2349V44.5981H109.696V34.1365Z" fill="black" stroke="#111111" stroke-width="2.09232"></path><path d="M133.524 90.8403H123.062V101.302H133.524V90.8403Z" fill="black" stroke="#111111" stroke-width="2.09232"></path><path d="M161.429 106.951H150.967V117.413H161.429V106.951Z" fill="black" stroke="#111111" stroke-width="2.09232"></path><path d="M161.429 139.173H150.967V149.634H161.429V139.173Z" fill="black" stroke="#111111" stroke-width="2.09232"></path><path d="M133.524 155.284H123.062V165.745H133.524V155.284Z" fill="black" stroke="#111111" stroke-width="2.09232"></path><path d="M105.618 139.173H95.1567V149.634H105.618V139.173Z" fill="black" stroke="#111111" stroke-width="2.09232"></path><path d="M105.618 106.951H95.1567V117.413H105.618V106.951Z" fill="black" stroke="#111111" stroke-width="2.09232"></path></svg>