<svg xmlns="http://www.w3.org/2000/svg" width="16" height="16" viewBox="0 0 16 16" fill="none"><g clip-path="url(#clip0_273_145)">
<circle cx="8" cy="8" r="8" fill="white"></circle>
<circle cx="8.00186" cy="5.78116" r="0.633945" fill="black"></circle>
<circle cx="9.0268" cy="1.7437" r="0.633945" transform="rotate(9.30168 9.0268 1.7437)" fill="black"></circle>
<circle cx="6.97724" cy="14.2564" r="0.633945" transform="rotate(9.30168 6.97724 14.2564)" fill="black"></circle>
<circle cx="10.4858" cy="2.16732" r="0.633945" transform="rotate(23.0635 10.4858 2.16732)" fill="black"></circle>
<circle cx="5.51876" cy="13.8331" r="0.633945" transform="rotate(23.0635 5.51876 13.8331)" fill="black"></circle>
<circle cx="11.9385" cy="3.03045" r="0.633944" transform="rotate(38.3813 11.9385 3.03045)" fill="black"></circle>
<circle cx="4.06574" cy="12.9697" r="0.633944" transform="rotate(38.3813 4.06574 12.9697)" fill="black"></circle>
<circle cx="13.1112" cy="4.24657" r="0.633944" transform="rotate(53.6991 13.1112 4.24657)" fill="black"></circle>
<circle cx="2.89297" cy="11.7532" r="0.633944" transform="rotate(53.6991 2.89297 11.7532)" fill="black"></circle>
<circle cx="13.9212" cy="5.73005" r="0.633944" transform="rotate(69.0169 13.9212 5.73005)" fill="black"></circle>
<circle cx="2.08286" cy="10.2698" r="0.633944" transform="rotate(69.0169 2.08286 10.2698)" fill="black"></circle>
<circle cx="14.3106" cy="7.37434" r="0.633944" transform="rotate(84.3347 14.3106 7.37434)" fill="black"></circle>
<circle cx="1.69345" cy="8.62605" r="0.633944" transform="rotate(84.3347 1.69345 8.62605)" fill="black"></circle>
<circle cx="14.2519" cy="9.06286" r="0.633944" transform="rotate(99.6526 14.2519 9.06286)" fill="black"></circle>
<circle cx="1.75213" cy="6.93713" r="0.633944" transform="rotate(99.6526 1.75213 6.93713)" fill="black"></circle>
<circle cx="13.7492" cy="10.6765" r="0.633944" transform="rotate(114.97 13.7492 10.6765)" fill="black"></circle>
<circle cx="2.25511" cy="5.32391" r="0.633944" transform="rotate(114.97 2.25511 5.32391)" fill="black"></circle>
<circle cx="12.8379" cy="12.0993" r="0.633944" transform="rotate(130.288 12.8379 12.0993)" fill="black"></circle>
<circle cx="3.16607" cy="3.90079" r="0.633944" transform="rotate(130.288 3.16607 3.90079)" fill="black"></circle>
<circle cx="11.5834" cy="13.231" r="0.633944" transform="rotate(145.606 11.5834 13.231)" fill="black"></circle>
<circle cx="4.42079" cy="2.76883" r="0.633944" transform="rotate(145.606 4.42079 2.76883)" fill="black"></circle>
<circle cx="10.0743" cy="13.9914" r="0.633944" transform="rotate(160.924 10.0743 13.9914)" fill="black"></circle>
<circle cx="5.93025" cy="2.00869" r="0.633944" transform="rotate(160.924 5.93025 2.00869)" fill="black"></circle>
<circle cx="8.41766" cy="14.326" r="0.633944" transform="rotate(176.242 8.41766 14.326)" fill="black"></circle>
<circle cx="7.58661" cy="1.67435" r="0.633944" transform="rotate(176.242 7.58661 1.67435)" fill="black"></circle>
<circle cx="8.00186" cy="10.2191" r="0.633945" fill="black"></circle>
<circle cx="9.92372" cy="6.89064" r="0.633945" transform="rotate(60 9.92372 6.89064)" fill="black"></circle>
<circle cx="6.08022" cy="9.10939" r="0.633945" transform="rotate(60 6.08022 9.10939)" fill="black"></circle>
<circle cx="9.92381" cy="9.10972" r="0.633945" transform="rotate(120 9.92381 9.10972)" fill="black"></circle>
<circle cx="6.08055" cy="6.89049" r="0.633945" transform="rotate(120 6.08055 6.89049)" fill="black"></circle>
</g><defs>
<clipPath id="clip0_273_145">
<rect width="16" height="16" fill="white"></rect>
</clipPath>
</defs></svg>