<svg width="70" height="70" viewBox="0 0 70 70" fill="none" xmlns="http://www.w3.org/2000/svg">
<path d="M0.863333 44V37H2.61333V38.05H2.89333C3.03333 37.7 3.24722 37.4083 3.535 37.175C3.83056 36.9417 4.26222 36.825 4.83 36.825C5.60778 36.825 6.19111 37.07 6.58 37.56C6.96889 38.05 7.16333 38.715 7.16333 39.555V44H5.27333V39.87C5.27333 39.3878 5.18778 39.0183 5.01667 38.7617C4.84556 38.4972 4.56556 38.365 4.17667 38.365C3.72556 38.365 3.37556 38.5439 3.12667 38.9017C2.87778 39.2517 2.75333 39.6911 2.75333 40.22V44H0.863333ZM8.88635 44V42.5767H11.0447V37.7933H9.08469L9.07302 36.5333L9.63302 36.4867C9.98302 36.4556 10.2708 36.4011 10.4964 36.3233C10.7297 36.2378 10.9164 36.0861 11.0564 35.8683C11.1964 35.6506 11.3014 35.3278 11.3714 34.9H12.9347V42.5767H14.9064V44H8.88635ZM17.621 44.07C17.2555 44.07 16.9755 43.9689 16.781 43.7667C16.5866 43.5567 16.4894 43.2844 16.4894 42.95C16.4894 42.6078 16.5866 42.3356 16.781 42.1333C16.9755 41.9311 17.2555 41.83 17.621 41.83C17.9866 41.83 18.2627 41.9311 18.4494 42.1333C18.636 42.3356 18.7294 42.6078 18.7294 42.95C18.7294 43.2844 18.636 43.5567 18.4494 43.7667C18.2627 43.9689 17.9866 44.07 17.621 44.07ZM3.72167 62.175C2.64056 62.175 1.81611 61.8444 1.24833 61.1833C0.680556 60.5222 0.396667 59.6278 0.396667 58.5C0.396667 57.31 0.696111 56.4 1.295 55.77C1.90167 55.14 2.71833 54.825 3.745 54.825C4.67056 54.825 5.39778 55.07 5.92667 55.56C6.45556 56.05 6.77056 56.7189 6.87167 57.5667H5.005C4.95056 57.1078 4.81444 56.7578 4.59667 56.5167C4.37889 56.2756 4.09889 56.155 3.75667 56.155C3.30556 56.155 2.95944 56.3572 2.71833 56.7617C2.47722 57.1661 2.35667 57.7456 2.35667 58.5C2.35667 59.2544 2.47333 59.8339 2.70667 60.2383C2.94778 60.6428 3.29389 60.845 3.745 60.845C4.095 60.845 4.37889 60.7244 4.59667 60.4833C4.81444 60.2344 4.95056 59.8844 5.005 59.4333H6.87167C6.76278 60.2656 6.44 60.9306 5.90333 61.4283C5.37444 61.9261 4.64722 62.175 3.72167 62.175ZM11.0824 62.175C9.92353 62.175 9.05631 61.8444 8.48076 61.1833C7.91298 60.5144 7.62909 59.62 7.62909 58.5C7.62909 57.38 7.91298 56.4894 8.48076 55.8283C9.05631 55.1594 9.92353 54.825 11.0824 54.825C12.2413 54.825 13.1046 55.1594 13.6724 55.8283C14.248 56.4894 14.5358 57.38 14.5358 58.5C14.5358 59.62 14.248 60.5144 13.6724 61.1833C13.1046 61.8444 12.2413 62.175 11.0824 62.175ZM11.0824 60.915C11.5958 60.915 11.973 60.7128 12.2141 60.3083C12.4552 59.9039 12.5758 59.2972 12.5758 58.4883C12.5758 57.6872 12.4552 57.0883 12.2141 56.6917C11.973 56.2872 11.5958 56.085 11.0824 56.085C10.5691 56.085 10.1919 56.2872 9.95076 56.6917C9.70964 57.0883 9.58909 57.6872 9.58909 58.4883C9.58909 59.2972 9.70964 59.9039 9.95076 60.3083C10.1919 60.7128 10.5691 60.915 11.0824 60.915ZM15.793 62V55H17.543V56.05H17.823C17.9552 55.7156 18.1652 55.4278 18.453 55.1867C18.7408 54.9456 19.1569 54.825 19.7014 54.825C20.1836 54.825 20.5841 54.9339 20.903 55.1517C21.2297 55.3617 21.4786 55.6611 21.6497 56.05H21.9297C22.0697 55.7 22.2875 55.4083 22.583 55.175C22.8786 54.9417 23.2869 54.825 23.808 54.825C24.5625 54.825 25.1264 55.07 25.4997 55.56C25.873 56.05 26.0597 56.715 26.0597 57.555V62H24.1697V57.87C24.1697 57.3956 24.0919 57.0261 23.9364 56.7617C23.7808 56.4972 23.528 56.365 23.178 56.365C22.7502 56.365 22.4236 56.5439 22.198 56.9017C21.9802 57.2594 21.8714 57.6989 21.8714 58.22V62H19.9814V57.87C19.9814 57.3956 19.9036 57.0261 19.748 56.7617C19.5925 56.4972 19.3397 56.365 18.9897 56.365C18.5697 56.365 18.2469 56.5439 18.0214 56.9017C17.7958 57.2594 17.683 57.6989 17.683 58.22V62H15.793ZM27.6876 62V55H29.4376V56.05H29.7176C29.8498 55.7156 30.0598 55.4278 30.3476 55.1867C30.6353 54.9456 31.0514 54.825 31.5959 54.825C32.0781 54.825 32.4787 54.9339 32.7976 55.1517C33.1242 55.3617 33.3731 55.6611 33.5442 56.05H33.8242C33.9642 55.7 34.182 55.4083 34.4776 55.175C34.7731 54.9417 35.1814 54.825 35.7026 54.825C36.457 54.825 37.0209 55.07 37.3942 55.56C37.7676 56.05 37.9542 56.715 37.9542 57.555V62H36.0642V57.87C36.0642 57.3956 35.9864 57.0261 35.8309 56.7617C35.6753 56.4972 35.4226 56.365 35.0726 56.365C34.6448 56.365 34.3181 56.5439 34.0926 56.9017C33.8748 57.2594 33.7659 57.6989 33.7659 58.22V62H31.8759V57.87C31.8759 57.3956 31.7981 57.0261 31.6426 56.7617C31.487 56.4972 31.2342 56.365 30.8842 56.365C30.4642 56.365 30.1414 56.5439 29.9159 56.9017C29.6903 57.2594 29.5776 57.6989 29.5776 58.22V62H27.6876ZM41.8454 62.175C41.0676 62.175 40.4804 61.93 40.0838 61.44C39.6871 60.95 39.4887 60.285 39.4887 59.445V55H41.3787V59.13C41.3787 59.6044 41.4643 59.9739 41.6354 60.2383C41.8065 60.5028 42.0826 60.635 42.4638 60.635C42.9226 60.635 43.2765 60.4561 43.5254 60.0983C43.7743 59.7406 43.8988 59.3011 43.8988 58.78V55H45.7887V62H44.0854V60.95H43.8054C43.6888 61.3 43.4749 61.5917 43.1637 61.825C42.8526 62.0583 42.4132 62.175 41.8454 62.175ZM47.5118 62V55H49.2618V56.05H49.5418C49.6818 55.7 49.8957 55.4083 50.1834 55.175C50.479 54.9417 50.9107 54.825 51.4784 54.825C52.2562 54.825 52.8395 55.07 53.2284 55.56C53.6173 56.05 53.8118 56.715 53.8118 57.555V62H51.9218V57.87C51.9218 57.3878 51.8362 57.0183 51.6651 56.7617C51.494 56.4972 51.214 56.365 50.8251 56.365C50.374 56.365 50.024 56.5439 49.7751 56.9017C49.5262 57.2517 49.4018 57.6911 49.4018 58.22V62H47.5118ZM55.4415 62V55H57.3315V62H55.4415ZM56.3865 54.195C56.052 54.195 55.7992 54.1094 55.6281 53.9383C55.457 53.7594 55.3715 53.53 55.3715 53.25C55.3715 52.97 55.457 52.7444 55.6281 52.5733C55.7992 52.3944 56.052 52.305 56.3865 52.305C56.7209 52.305 56.9737 52.3944 57.1448 52.5733C57.3159 52.7444 57.4015 52.97 57.4015 53.25C57.4015 53.53 57.3159 53.7594 57.1448 53.9383C56.9737 54.1094 56.7209 54.195 56.3865 54.195ZM60.0912 62C59.9123 61.79 59.7684 61.5372 59.6595 61.2417C59.5584 60.9461 59.5078 60.5028 59.5078 59.9117V56.33H58.5512V55H59.5312V53.25H61.3862V55H62.5178V56.33H61.3862V59.7133C61.3862 60.3278 61.4562 60.7983 61.5962 61.125C61.7362 61.4517 61.9034 61.72 62.0978 61.93V62H60.0912ZM64.1583 64.3333V64.31C64.3527 63.9911 64.5627 63.6217 64.7883 63.2017C65.0138 62.7817 65.2122 62.3811 65.3833 62L62.9799 55.07V55H64.8466L65.5699 57.1C65.6866 57.4344 65.8033 57.7922 65.9199 58.1733C66.0366 58.5544 66.1533 59.0367 66.2699 59.62H66.5499C66.6666 59.0367 66.7833 58.5544 66.8999 58.1733C67.0166 57.7922 67.1333 57.4344 67.2499 57.1L67.9733 55H69.7466V55.07L67.5999 61.0433C67.3199 61.8289 67.0477 62.4978 66.7833 63.05C66.5266 63.61 66.3088 64.0378 66.1299 64.3333H64.1583Z" fill="black"/>
<circle cx="43.5" cy="18.6811" r="1.94653" fill="black" fill-opacity="0.5"/>
<circle cx="46.6466" cy="6.2839" r="1.94653" transform="rotate(9.30168 46.6466 6.2839)" fill="black" fill-opacity="0.5"/>
<circle cx="40.3539" cy="44.7038" r="1.94653" transform="rotate(9.30168 40.3539 44.7038)" fill="black" fill-opacity="0.5"/>
<circle cx="51.126" cy="7.58377" r="1.94653" transform="rotate(23.0635 51.126 7.58377)" fill="black" fill-opacity="0.5"/>
<circle cx="35.8746" cy="43.4038" r="1.94653" transform="rotate(23.0635 35.8746 43.4038)" fill="black" fill-opacity="0.5"/>
<circle cx="55.5861" cy="10.2347" r="1.94653" transform="rotate(38.3813 55.5861 10.2347)" fill="black" fill-opacity="0.5"/>
<circle cx="31.4137" cy="40.753" r="1.94653" transform="rotate(38.3813 31.4137 40.753)" fill="black" fill-opacity="0.5"/>
<circle cx="59.1879" cy="13.9697" r="1.94653" transform="rotate(53.6991 59.1879 13.9697)" fill="black" fill-opacity="0.5"/>
<circle cx="27.8122" cy="37.0173" r="1.94653" transform="rotate(53.6991 27.8122 37.0173)" fill="black" fill-opacity="0.5"/>
<circle cx="61.6748" cy="18.5233" r="1.94653" transform="rotate(69.0169 61.6748 18.5233)" fill="black" fill-opacity="0.5"/>
<circle cx="25.3254" cy="32.4639" r="1.94653" transform="rotate(69.0169 25.3254 32.4639)" fill="black" fill-opacity="0.5"/>
<circle cx="62.8709" cy="23.5718" r="1.94653" transform="rotate(84.3347 62.8709 23.5718)" fill="black" fill-opacity="0.5"/>
<circle cx="24.1292" cy="27.4153" r="1.94653" transform="rotate(84.3347 24.1292 27.4153)" fill="black" fill-opacity="0.5"/>
<circle cx="62.6902" cy="28.7576" r="1.94653" transform="rotate(99.6526 62.6902 28.7576)" fill="black" fill-opacity="0.5"/>
<circle cx="24.3098" cy="22.2298" r="1.94653" transform="rotate(99.6526 24.3098 22.2298)" fill="black" fill-opacity="0.5"/>
<circle cx="61.1469" cy="33.7114" r="1.94653" transform="rotate(114.97 61.1469 33.7114)" fill="black" fill-opacity="0.5"/>
<circle cx="25.8541" cy="17.2763" r="1.94653" transform="rotate(114.97 25.8541 17.2763)" fill="black" fill-opacity="0.5"/>
<circle cx="58.349" cy="38.0806" r="1.94653" transform="rotate(130.288 58.349 38.0806)" fill="black" fill-opacity="0.5"/>
<circle cx="28.6515" cy="12.9068" r="1.94653" transform="rotate(130.288 28.6515 12.9068)" fill="black" fill-opacity="0.5"/>
<circle cx="54.4964" cy="41.5561" r="1.94653" transform="rotate(145.606 54.4964 41.5561)" fill="black" fill-opacity="0.5"/>
<circle cx="32.5039" cy="9.43157" r="1.94653" transform="rotate(145.606 32.5039 9.43157)" fill="black" fill-opacity="0.5"/>
<circle cx="49.8621" cy="43.8903" r="1.94653" transform="rotate(160.924 49.8621 43.8903)" fill="black" fill-opacity="0.5"/>
<circle cx="37.1385" cy="7.09732" r="1.94653" transform="rotate(160.924 37.1385 7.09732)" fill="black" fill-opacity="0.5"/>
<circle cx="44.7763" cy="44.9182" r="1.94653" transform="rotate(176.242 44.7763 44.9182)" fill="black" fill-opacity="0.5"/>
<circle cx="42.2243" cy="6.07002" r="1.94653" transform="rotate(176.242 42.2243 6.07002)" fill="black" fill-opacity="0.5"/>
<circle cx="43.5" cy="32.3071" r="1.94653" fill="black" fill-opacity="0.5"/>
<circle cx="49.4001" cy="22.0875" r="1.94653" transform="rotate(60 49.4001 22.0875)" fill="black" fill-opacity="0.5"/>
<circle cx="37.5993" cy="28.8997" r="1.94653" transform="rotate(60 37.5993 28.8997)" fill="black" fill-opacity="0.5"/>
<circle cx="49.4001" cy="28.9002" r="1.94653" transform="rotate(120 49.4001 28.9002)" fill="black" fill-opacity="0.5"/>
<circle cx="37.5995" cy="22.0875" r="1.94653" transform="rotate(120 37.5995 22.0875)" fill="black" fill-opacity="0.5"/>
</svg>
